<?xml version="1.0" encoding="iso-8859-1"?>
<!-- Uploaded to: SVG Repo, www.svgrepo.com, Generator: SVG Repo Mixer Tools -->
<svg version="1.1" id="Layer_1" xmlns="http://www.w3.org/2000/svg" xmlns:xlink="http://www.w3.org/1999/xlink" 
	 viewBox="0 0 469.333 469.333" xml:space="preserve">
<g>
	<path style="fill:#3AADD9;" d="M405.333,458.667H64V352c0-47.125,38.208-85.333,85.333-85.333H320
		c47.125,0,85.333,38.208,85.333,85.333V458.667z"/>
	<path style="fill:#3AADD9;" d="M277.333,266.667H192c-23.563,0-42.667-19.104-42.667-42.667v-53.333H320V224
		C320,247.563,300.896,266.667,277.333,266.667z"/>
	<path style="fill:#3AADD9;" d="M320,85.333H149.333v-32c0-23.563,19.104-42.667,42.667-42.667h85.333
		c23.563,0,42.667,19.104,42.667,42.667V85.333z"/>
</g>
<g>
	<rect x="149.333" y="85.333" style="fill:#F7DADC;" width="170.667" height="85.333"/>
	<path style="fill:#F7DADC;" d="M149.333,109.621c-3.147-1.824-6.763-2.955-10.667-2.955c-11.787,0-21.333,9.547-21.333,21.333
		s9.547,21.333,21.333,21.333c3.904,0,7.52-1.131,10.667-2.955V109.621z"/>
	<path style="fill:#F7DADC;" d="M320,109.621c3.147-1.824,6.763-2.955,10.667-2.955c11.787,0,21.333,9.547,21.333,21.333
		s-9.547,21.333-21.333,21.333c-3.904,0-7.52-1.131-10.667-2.955V109.621z"/>
</g>
<path d="M320,256h-0.277c6.773-8.939,10.944-19.947,10.944-32v-64c17.643,0,32-14.357,32-32s-14.357-32-32-32V53.333
	C330.667,23.925,306.741,0,277.333,0H192c-29.408,0-53.333,23.925-53.333,53.333V96c-17.643,0-32,14.357-32,32s14.357,32,32,32v64
	c0,12.053,4.171,23.061,10.944,32h-0.277c-52.939,0-96,43.061-96,96v106.667c0,5.899,4.768,10.667,10.667,10.667h341.333
	c5.899,0,10.667-4.768,10.667-10.667V352C416,299.061,372.939,256,320,256z M160,146.379v-36.747V96h149.333v13.621v36.747V160H160
	V146.379z M341.333,128c0,5.888-4.779,10.667-10.667,10.667v-21.333C336.555,117.333,341.333,122.112,341.333,128z M160,53.333
	c0-17.643,14.357-32,32-32h85.333c17.643,0,32,14.357,32,32v21.333H160V53.333z M128,128c0-5.888,4.779-10.667,10.667-10.667v21.333
	C132.779,138.667,128,133.888,128,128z M160,224v-42.667h149.333V224c0,17.643-14.357,32-32,32H192C174.357,256,160,241.643,160,224
	z M394.667,448h-64v-96c0-5.899-4.768-10.667-10.667-10.667s-10.667,4.768-10.667,10.667v96H160v-96
	c0-5.899-4.768-10.667-10.667-10.667c-5.899,0-10.667,4.768-10.667,10.667v96h-64v-96c0-41.163,33.504-74.667,74.667-74.667H192
	h85.333H320c41.163,0,74.667,33.504,74.667,74.667V448z"/>
<circle style="fill:#FFFFFF;" cx="266.667" cy="362.667" r="21.333"/>
<circle cx="10.667" cy="213.333" r="10.667"/>
<circle cx="53.333" cy="213.333" r="10.667"/>
<circle cx="96" cy="213.333" r="10.667"/>
<circle cx="373.333" cy="213.333" r="10.667"/>
<circle cx="416" cy="213.333" r="10.667"/>
<circle cx="458.667" cy="213.333" r="10.667"/>
</svg>